<svg width="20" height="20" viewBox="0 0 20 20" fill="none" xmlns="http://www.w3.org/2000/svg">
<g opacity="0.5">
<path opacity="0.3" d="M5.83333 9.16669V5.83335C5.83333 4.72828 6.27232 3.66848 7.05372 2.88708C7.83512 2.10567 8.89493 1.66669 10 1.66669C11.1051 1.66669 12.1649 2.10567 12.9463 2.88708C13.7277 3.66848 14.1667 4.72828 14.1667 5.83335V9.16669M4.16667 9.16669H15.8333C16.7538 9.16669 17.5 9.91288 17.5 10.8334V16.6667C17.5 17.5872 16.7538 18.3334 15.8333 18.3334H4.16667C3.24619 18.3334 2.5 17.5872 2.5 16.6667V10.8334C2.5 9.91288 3.24619 9.16669 4.16667 9.16669Z" stroke="white" stroke-width="2" stroke-linecap="round" stroke-linejoin="round"/>
</g>
</svg>
