<svg width="125" height="32" viewBox="0 0 125 32" fill="none" xmlns="http://www.w3.org/2000/svg">
<g opacity="0.8">
<path d="M26.4405 27.8013C26.6881 27.6267 26.9288 27.3141 27.1847 27.3013C28.2935 27.2456 29.4145 27.3532 30.5146 27.2411C30.9732 27.1944 31.4252 26.7867 31.802 26.4552C31.8934 26.3748 31.7577 25.8159 31.5817 25.706C31.233 25.4881 30.7842 25.3252 30.3754 25.3221C26.6802 25.2941 22.9848 25.311 19.2894 25.3038C16.812 25.2991 14.6447 24.4227 13.0364 22.5859C11.1951 20.483 10.4266 17.9639 11.1696 15.1903C12.2948 10.9898 15.977 8.53456 20.3413 9.04056C21.5236 9.17763 22.666 9.84737 23.7722 10.3838C24.8329 10.8981 25.8548 11.5096 26.8335 12.1669C27.6052 12.6852 28.6941 11.971 29.0695 11.3114C29.45 10.6429 29.1164 9.37593 28.4956 9.00295C27.5214 8.41754 27.2689 7.81925 27.6114 6.68425C27.9376 5.60289 27.9107 4.39461 28.7567 3.48361C28.8251 3.40999 28.6316 3.06966 28.5281 2.86947C28.2335 2.29967 27.9272 1.73587 27.5615 1.0549C27.4975 0.93557 27.5846 0.791405 27.7207 0.791405C32.2042 0.791405 36.3972 0.791405 40.6949 0.791405C40.6949 2.81868 40.7658 4.87013 40.6426 6.90999C40.6136 7.38926 39.9291 7.82938 39.5032 8.33892C42.4508 10.6706 43.1465 13.6532 41.5079 17.1544C42.6698 17.2418 43.8339 17.3282 44.9978 17.4172C46.0517 17.4978 47.3976 18.7985 47.3102 20.3452C41.8925 20.3452 36.4681 20.3452 31.0636 20.3452C30.5604 17.3241 31.4459 14.9441 33.9494 13.3417C34.7597 12.8231 35.8134 12.6449 36.7811 12.418C37.3968 12.2736 37.4925 12.6764 37.404 13.2396C37.1985 14.5477 36.4215 15.4153 35.3896 16.153C35.0601 16.3885 34.8409 16.7766 34.5697 17.1658C34.5681 17.2366 34.5529 17.247 34.4913 17.2436C34.3557 17.0913 34.1821 16.8519 34.223 16.8075C34.6402 16.3538 35.0381 15.8499 35.5459 15.5181C36.5906 14.8353 37.0509 13.9524 36.7611 12.7513C36.4864 12.7953 36.1999 12.8234 35.9221 12.8885C33.352 13.4902 31.273 15.9195 31.4789 18.9184C31.5291 19.6494 31.6171 19.9576 32.4608 19.9494C36.9665 19.9058 41.4728 19.9298 45.9789 19.9262C46.2331 19.926 46.4874 19.888 46.7507 19.8668C46.4654 18.4991 45.6784 17.8073 44.3996 17.7807C43.3507 17.7589 42.301 17.7762 41.0328 17.7762C41.1489 17.2848 41.2147 16.8692 41.3461 16.4753C41.7715 15.2003 42.1502 13.9511 41.8032 12.5599C41.4471 11.1324 40.7283 9.96861 39.5925 9.08079C38.8465 8.49762 38.9529 8.0041 39.591 7.50863C40.2272 7.01463 40.389 6.39925 40.3536 5.62829C40.3001 4.46598 40.3031 3.29791 40.3525 2.13525C40.3851 1.36917 40.1443 1.08045 39.3351 1.08881C35.8507 1.12481 32.3658 1.10268 28.8811 1.10745C28.6343 1.10778 28.3876 1.15434 27.9588 1.19789C28.3294 1.73708 28.5463 2.16949 28.8708 2.49636C29.3121 2.94092 29.4229 3.27859 29.0663 3.88653C28.6363 4.61947 28.2783 5.4555 28.151 6.28654C28.0035 7.25009 27.7588 8.25823 28.9906 9.00091C30.1879 9.72288 29.7329 11.8844 28.4209 12.5011C27.2766 13.039 26.3784 12.4766 25.5218 11.8906C23.3076 10.376 21.0209 9.20807 18.1917 9.51156C16.2754 9.71714 14.6829 10.505 13.4118 11.8754C11.9656 13.4347 11.4413 15.3389 11.4712 17.4619C11.5275 21.47 14.8181 24.7686 18.8639 24.7681C22.5589 24.7676 26.2539 24.7649 29.9489 24.7729C30.3036 24.7737 30.6658 24.8101 31.0111 24.8886C31.7352 25.0532 32.1741 25.5341 32.2009 26.265C32.2251 26.9237 31.5201 27.5496 30.7619 27.6277C30.4646 27.6583 30.161 27.6226 29.8613 27.6379C28.7289 27.6955 27.597 27.7616 26.4588 27.8188C26.4527 27.813 26.4405 27.8013 26.4405 27.8013Z" fill="#D2F5F9"/>
<path d="M38.5226 16.1484C38.5896 15.9589 38.6382 15.7603 38.7264 15.5811C39.8542 13.291 39.1551 11.5329 36.8096 10.5513C35.4423 9.97913 34.055 9.3741 33.2862 7.97344C33.1225 7.6751 32.9804 7.35903 32.8748 7.03612C32.4931 5.86879 32.753 5.52397 33.9325 5.78165C34.7787 5.96651 35.5865 6.32464 36.5764 6.66161C37.6966 5.85367 37.7493 5.72769 37.568 3.79346C36.2033 3.79346 34.8275 3.74536 33.457 3.81015C32.5225 3.85433 30.9668 5.28771 30.8401 6.22712C30.7908 6.59251 31.018 7.07155 31.264 7.38739C33.2443 9.92979 32.4084 14.091 28.8884 15.1998C28.0951 15.4497 27.159 15.2408 26.2894 15.2686C26.0429 15.2764 25.7466 15.3049 25.5634 15.4426C24.645 16.1326 23.0424 15.6475 23.093 14.5385C23.1517 13.2536 22.2061 13.1298 21.534 12.6319C21.4199 12.5473 21.268 12.5133 21.2856 12.6521C20.8246 12.9857 20.408 13.4779 19.8935 13.6204C18.7607 13.9341 18.3006 13.0476 17.8284 12.1385C17.1627 12.4835 16.5071 12.8233 15.8523 13.1628C16.5025 14.6437 16.0621 15.416 14.5436 15.852C14.2199 15.9449 14.0716 16.6413 13.7624 17.206C15.3271 17.206 16.5824 17.206 17.8448 17.206C18.3064 16.0641 18.999 15.5077 19.8202 15.6305C20.5952 15.7464 21.0194 16.2667 21.0717 17.2381C22.5624 17.2381 24.0586 17.2358 25.5548 17.2386C27.245 17.2418 28.3488 18.1265 28.8639 19.3634C29.1762 20.1131 29.047 20.2923 28.2553 20.2912C24.3257 20.2858 20.3962 20.2835 16.4666 20.2931C16.1538 20.2938 15.8412 20.3935 15.4104 20.4674C16.4275 21.6807 17.6763 22.2298 19.1163 22.2441C23.0821 22.2835 27.0492 22.217 31.0146 22.2746C33.0614 22.3043 34.4143 23.5768 34.9055 25.6779C35.1807 26.8554 34.2293 29.1037 32.6376 29.8354C30.8294 30.6667 29.0126 30.2484 27.21 30.2759C26.1914 30.2914 25.7824 28.9742 26.3638 27.8095C26.4406 27.8013 26.4528 27.813 26.4562 27.8984C26.4445 29.7794 26.4524 29.7875 28.2533 29.7876C29.185 29.7877 30.1183 29.8223 31.0478 29.7779C32.0964 29.7279 33.0351 29.4051 33.6875 28.5004C34.5732 27.2722 34.6974 25.9181 34.0719 24.6105C33.4105 23.2276 32.1279 22.6274 30.6068 22.6204C26.9406 22.6037 23.2725 22.5505 19.6085 22.6429C17.8503 22.6873 16.4748 21.9995 15.1901 20.976C14.971 20.8015 14.906 20.4358 14.7697 20.1584C15.0372 20.0819 15.3044 19.9398 15.5721 19.9388C19.569 19.9246 23.5659 19.929 27.5629 19.9291C27.8797 19.9291 28.1966 19.9291 28.5432 19.9291C28.173 18.4967 27.3101 17.7969 25.9549 17.78C24.5426 17.7624 23.1299 17.7673 21.7176 17.78C21.1261 17.7853 20.725 17.6158 20.6798 16.9506C20.634 16.2758 20.1112 15.9456 19.5795 16.04C19.1867 16.1097 18.6645 16.5593 18.5673 16.9339C18.3896 17.6184 18.0433 17.7924 17.4244 17.7806C16.4931 17.7627 15.5612 17.7783 14.6296 17.7749C14.1814 17.7733 13.7142 17.8488 13.6475 17.1675C13.5495 16.1661 13.8228 15.432 14.4223 15.2865C15.6946 14.9777 15.7037 14.9346 15.5159 13.5301C15.4844 13.294 15.6223 12.9216 15.8084 12.793C16.2697 12.4739 16.8007 12.2523 17.3102 12.0048C17.8793 11.7282 18.2183 11.9111 18.5461 12.4627C18.7578 12.819 19.2404 13.2258 19.6016 13.2258C19.9632 13.2258 20.4289 12.8153 20.6589 12.4623C20.9217 12.0591 21.137 11.9755 21.5214 12.1914C21.8602 12.3817 22.1764 12.6265 22.5349 12.7644C23.2912 13.0554 23.6768 13.4836 23.5952 14.3701C23.5258 15.1241 24.3161 15.6615 24.9453 15.197C25.7115 14.6313 26.4067 14.928 27.1435 14.9039C27.6494 14.8874 28.1732 14.9085 28.6564 14.7858C32.3697 13.8425 32.7593 9.35376 30.6892 7.35842C30.4951 7.17141 30.2834 6.85931 30.3012 6.62167C30.4126 5.1335 32.0065 3.54382 33.5348 3.45363C34.8226 3.37765 36.1193 3.41116 37.4096 3.46053C37.6113 3.46825 37.9295 3.79329 37.9732 4.01468C38.267 5.50171 37.677 6.59747 36.3191 7.34308C35.4363 6.60901 34.5292 5.85962 33.2226 6.20122C33.1899 6.31654 33.1449 6.40095 33.1476 6.48384C33.1514 6.60013 33.1778 6.71974 33.2167 6.83025C33.7317 8.29469 34.6621 9.33213 36.1968 9.80724C38.0632 10.3851 39.4126 11.4654 39.7385 13.5262C39.8846 14.4503 39.3264 15.7846 38.5401 16.166C38.5343 16.1601 38.5226 16.1484 38.5226 16.1484Z" fill="#D2F5F9"/>
<path d="M34.5756 17.2311C35.7903 17.2766 37.0037 17.3567 38.1005 16.5199C38.1735 16.5187 38.1853 16.5303 38.176 16.593C37.4482 17.6479 35.5816 18.1002 34.2836 17.5867C34.3753 17.471 34.4641 17.359 34.553 17.247C34.553 17.247 34.5682 17.2366 34.5756 17.2311Z" fill="#D2F5F9"/>
<path d="M38.176 16.593C38.2992 16.4483 38.4131 16.3664 38.5364 16.2281C39.3264 15.7846 39.8846 14.4503 39.7385 13.5262C39.4126 11.4654 38.0632 10.3851 36.1968 9.80724C34.6621 9.33213 33.7317 8.29469 33.2167 6.83025C33.1778 6.71974 33.1514 6.60013 33.1476 6.48384C33.1449 6.40095 33.1899 6.31654 33.2226 6.20122C34.5292 5.85962 35.4363 6.60901 36.3191 7.34308C37.677 6.59747 38.267 5.50171 37.9732 4.01468C37.9295 3.79329 37.6113 3.46825 37.4096 3.46053C36.1193 3.41116 34.8226 3.37765 33.5348 3.45363C32.0065 3.54382 30.4126 5.1335 30.3012 6.62167C30.2834 6.85931 30.4951 7.17141 30.6892 7.35842C32.7593 9.35376 32.3697 13.8425 28.6564 14.7858C28.1732 14.9085 27.6494 14.8874 27.1435 14.9039C26.4067 14.928 25.7115 14.6313 24.9453 15.197C24.3161 15.6615 23.5258 15.1241 23.5952 14.3701C23.6768 13.4836 23.2912 13.0554 22.5349 12.7644C22.1764 12.6265 21.8602 12.3817 21.5214 12.1914C21.137 11.9755 20.9217 12.0591 20.6589 12.4623C20.4289 12.8153 19.9632 13.2258 19.6016 13.2258C19.2404 13.2258 18.7578 12.819 18.5461 12.4627C18.2183 11.9111 17.8793 11.7282 17.3102 12.0048C16.8007 12.2523 16.2697 12.4739 15.8084 12.793C15.6223 12.9216 15.4844 13.294 15.5159 13.5301C15.7037 14.9346 15.6946 14.9777 14.4223 15.2865C13.8228 15.432 13.5495 16.1661 13.6475 17.1675C13.7142 17.8488 14.1814 17.7733 14.6296 17.7749C15.5612 17.7783 16.4931 17.7627 17.4244 17.7806C18.0433 17.7924 18.3896 17.6184 18.5673 16.9339C18.6645 16.5593 19.1867 16.1097 19.5795 16.04C20.1112 15.9456 20.634 16.2758 20.6798 16.9506C20.725 17.6158 21.1261 17.7853 21.7176 17.78C23.1299 17.7673 24.5426 17.7624 25.9549 17.78C27.3101 17.7969 28.173 18.4967 28.5432 19.9291C28.1966 19.9291 27.8797 19.9291 27.5629 19.9291C23.5659 19.929 19.569 19.9246 15.5721 19.9388C15.3044 19.9398 15.0372 20.0819 14.7697 20.1584C14.906 20.4358 14.971 20.8015 15.1901 20.976C16.4748 21.9995 17.8503 22.6873 19.6085 22.6429C23.2725 22.5505 26.9406 22.6037 30.6068 22.6204C32.1279 22.6274 33.4105 23.2276 34.0719 24.6105C34.6974 25.9181 34.5732 27.2722 33.6875 28.5004C33.0351 29.4051 32.0964 29.7279 31.0478 29.7779C30.1183 29.8223 29.185 29.7877 28.2533 29.7876C26.4524 29.7875 26.4445 29.7794 26.4623 27.9042C27.5971 27.7616 28.7289 27.6955 29.8613 27.6379C30.161 27.6226 30.4646 27.6583 30.7619 27.6277C31.5201 27.5496 32.2251 26.9237 32.2009 26.265C32.1741 25.5341 31.7352 25.0532 31.0111 24.8886C30.6658 24.8101 30.3036 24.7737 29.9489 24.7729C26.2539 24.7649 22.5589 24.7676 18.8639 24.7681C14.8181 24.7686 11.5275 21.47 11.4712 17.4619C11.4413 15.3389 11.9656 13.4347 13.4118 11.8754C14.6829 10.505 16.2754 9.71714 18.1917 9.51156C21.0209 9.20807 23.3076 10.376 25.5218 11.8906C26.3784 12.4766 27.2766 13.039 28.4209 12.5011C29.7329 11.8844 30.1879 9.72288 28.9906 9.00091C27.7588 8.25823 28.0035 7.25009 28.151 6.28654C28.2783 5.4555 28.6363 4.61947 29.0663 3.88653C29.4229 3.27859 29.3121 2.94092 28.8708 2.49636C28.5463 2.16949 28.3294 1.73708 27.9588 1.19789C28.3876 1.15434 28.6343 1.10778 28.8811 1.10745C32.3658 1.10268 35.8507 1.12481 39.3351 1.08881C40.1443 1.08045 40.3851 1.36917 40.3525 2.13525C40.3031 3.29791 40.3001 4.46598 40.3536 5.62829C40.389 6.39925 40.2272 7.01463 39.591 7.50863C38.9529 8.0041 38.8465 8.49762 39.5925 9.08079C40.7283 9.96861 41.4471 11.1324 41.8032 12.5599C42.1502 13.9511 41.7715 15.2003 41.3461 16.4753C41.2147 16.8692 41.1489 17.2848 41.0328 17.7762C42.301 17.7762 43.3507 17.7589 44.3996 17.7807C45.6784 17.8073 46.4654 18.4991 46.7507 19.8668C46.4874 19.888 46.2331 19.926 45.9789 19.9262C41.4728 19.9298 36.9665 19.9058 32.4608 19.9494C31.6171 19.9576 31.5291 19.6494 31.4789 18.9184C31.273 15.9195 33.352 13.4902 35.9221 12.8885C36.1999 12.8234 36.4864 12.7953 36.7611 12.7513C37.0509 13.9524 36.5906 14.8353 35.5459 15.5181C35.0381 15.8499 34.6402 16.3538 34.223 16.8075C34.1821 16.8519 34.5049 17.1477 34.6406 17.3C34.6134 17.4154 34.3753 17.471 34.2836 17.5867C35.5816 18.1002 37.4482 17.6479 38.176 16.593Z" fill="#D2F5F9"/>
<path d="M9.27542 22.0508H0.722675C0.115133 22.0508 -0.220265 22.7518 0.163092 23.2203L1.48314 24.8338C1.62011 25.0012 1.82564 25.0984 2.04272 25.0984H10.4305C11.0166 25.0984 11.358 24.4403 11.0181 23.9655L9.86309 22.3521C9.72776 22.163 9.5088 22.0508 9.27542 22.0508Z" fill="#D2F5F9"/>
<path d="M10.5678 30.2191C9.53484 31.3595 8.15751 31.8007 7.49141 31.2045C6.8253 30.6082 7.12267 29.2003 8.15559 28.0598C9.18852 26.9193 10.5658 26.4782 11.232 27.0744C11.8981 27.6707 11.6007 29.0786 10.5678 30.2191Z" fill="#D2F5F9"/>
<path d="M18.8628 30.2191C17.8299 31.3595 16.4526 31.8007 15.7865 31.2045C15.1204 30.6082 15.4177 29.2003 16.4507 28.0598C17.4836 26.9193 18.8609 26.4782 19.527 27.0744C20.1931 27.6707 19.8958 29.0786 18.8628 30.2191Z" fill="#D2F5F9"/>
<path d="M40.0952 28.4104C41.1281 29.5509 41.4254 30.9588 40.7593 31.5551C40.0932 32.1513 38.7159 31.7101 37.683 30.5697C36.6501 29.4292 36.3527 28.0213 37.0188 27.425C37.6849 26.8288 39.0622 27.2699 40.0952 28.4104Z" fill="#D2F5F9"/>
<path d="M53.9804 28.5897C55.0133 29.7302 55.3107 31.1381 54.6446 31.7343C53.9785 32.3306 52.6011 31.8894 51.5682 30.7489C50.5353 29.6085 50.2379 28.2006 50.904 27.6043C51.5701 27.008 52.9475 27.4492 53.9804 28.5897Z" fill="#D2F5F9"/>
<path d="M50.5549 10.4775C49.5627 11.6531 48.2017 12.1418 47.515 11.569C46.8284 10.9962 47.0762 9.57888 48.0684 8.40326C49.0607 7.22764 50.4217 6.73894 51.1083 7.31173C51.7949 7.88451 51.5472 9.30187 50.5549 10.4775Z" fill="#D2F5F9"/>
<path d="M16.4699 2.74935C17.5227 3.87173 17.8448 5.27426 17.1892 5.88199C16.5337 6.48971 15.1488 6.0725 14.096 4.95012C13.0432 3.82774 12.7212 2.42521 13.3767 1.81748C14.0323 1.20976 15.4171 1.62697 16.4699 2.74935Z" fill="#D2F5F9"/>
<path d="M7.45355 16.1949C8.50634 17.3173 8.82838 18.7198 8.17284 19.3276C7.51731 19.9353 6.13244 19.5181 5.07965 18.3957C4.02687 17.2733 3.70483 15.8708 4.36037 15.2631C5.0159 14.6553 6.40077 15.0726 7.45355 16.1949Z" fill="#D2F5F9"/>
<path d="M24.6324 2.77876C24.6324 4.31342 23.9058 5.55751 23.0095 5.55751C22.1131 5.55751 21.3865 4.31342 21.3865 2.77876C21.3865 1.24409 22.1131 0 23.0095 0C23.9058 0 24.6324 1.24409 24.6324 2.77876Z" fill="#D2F5F9"/>
<path d="M41.4378 25.9948H39.379C38.8535 25.9948 38.3756 25.6922 38.1534 25.2188C37.7349 24.3274 38.3895 23.3057 39.379 23.3057H49.7109C50.7209 23.3057 51.258 24.491 50.5888 25.2431C50.3663 25.4931 50.0467 25.6363 49.7109 25.6363H48.4862C47.4442 25.6363 46.6719 26.5981 46.9029 27.6083L47.1955 29.3537C47.2369 29.6007 47.1287 29.8489 46.9191 29.9878C46.6519 30.165 46.2939 30.1177 46.0824 29.8774L43.4734 26.9131C42.9598 26.3295 42.2178 25.9948 41.4378 25.9948Z" fill="#D2F5F9"/>
<path d="M67.4688 6.9375V7.96875H66.0938V25.5H64.7188V7.96875H63.3438V6.9375H67.4688ZM73.8212 25.5H72.4462L72.2314 21.9336H71.2754L71.0712 25.5H69.6962L71.0712 9H72.4462L73.8212 25.5ZM72.1562 20.8164L71.7587 12.4375L71.3505 20.8164H72.1562ZM80.0019 9V10.0312H78.6269V25.5H77.2519V10.0312H75.8769V9H80.0019ZM86.1825 25.5H84.8075L84.5927 21.9336H83.6366L83.4325 25.5H82.0575L83.4325 9H84.8075L86.1825 25.5ZM84.5175 20.8164L84.12 12.4375L83.7118 20.8164H84.5175ZM92.535 15.875C92.535 16.2188 92.4491 16.4837 92.2772 16.6699C92.1053 16.8561 91.8475 16.9886 91.5037 17.0674C91.8475 17.1605 92.1053 17.3001 92.2772 17.4863C92.4491 17.6725 92.535 17.9375 92.535 18.2812V25.5H91.16V18.2812C91.16 18.1094 91.1385 17.9769 91.0955 17.8838C91.0526 17.7907 90.9881 17.7227 90.9022 17.6797C90.8162 17.6367 90.7088 17.6117 90.5799 17.6045C90.451 17.5973 90.3006 17.5938 90.1287 17.5938V25.5H88.7537V9H90.3006C90.7661 9 91.1636 9.03939 91.493 9.11816C91.8296 9.18978 92.0874 9.32227 92.2664 9.51562C92.4455 9.70182 92.535 9.98828 92.535 10.375V15.875ZM91.16 10.7188C91.16 10.5469 91.1385 10.4144 91.0955 10.3213C91.0526 10.2282 90.9881 10.1602 90.9022 10.1172C90.8162 10.0742 90.7088 10.0492 90.5799 10.042C90.451 10.0348 90.3006 10.0312 90.1287 10.0312V16.5625C90.3006 16.5625 90.451 16.5589 90.5799 16.5518C90.7088 16.5446 90.8162 16.5195 90.9022 16.4766C90.9881 16.4336 91.0526 16.3656 91.0955 16.2725C91.1385 16.1794 91.16 16.0469 91.16 15.875V10.7188ZM96.825 6.9375V24.4688H98.2V25.5H95.45V6.9375H96.825ZM103.865 10.0312H102.49V16.2188H103.865V17.25H102.49V24.4688H103.865V25.5H101.115V9H103.865V10.0312ZM110.217 25.5H108.842L108.628 21.9336H107.672L107.467 25.5H106.092L107.467 9H108.842L110.217 25.5ZM108.552 20.8164L108.155 12.4375L107.747 20.8164H108.552ZM116.57 15.875C116.57 16.2188 116.484 16.4837 116.312 16.6699C116.14 16.8561 115.882 16.9886 115.539 17.0674C115.882 17.1605 116.14 17.3001 116.312 17.4863C116.484 17.6725 116.57 17.9375 116.57 18.2812V25.5H115.195V18.2812C115.195 18.1094 115.174 17.9769 115.131 17.8838C115.088 17.7907 115.023 17.7227 114.937 17.6797C114.851 17.6367 114.744 17.6117 114.615 17.6045C114.486 17.5973 114.336 17.5938 114.164 17.5938V25.5H112.789V9H114.336C114.801 9 115.199 9.03939 115.528 9.11816C115.865 9.18978 116.122 9.32227 116.301 9.51562C116.48 9.70182 116.57 9.98828 116.57 10.375V15.875ZM115.195 10.7188C115.195 10.5469 115.174 10.4144 115.131 10.3213C115.088 10.2282 115.023 10.1602 114.937 10.1172C114.851 10.0742 114.744 10.0492 114.615 10.042C114.486 10.0348 114.336 10.0312 114.164 10.0312V16.5625C114.336 16.5625 114.486 16.5589 114.615 16.5518C114.744 16.5446 114.851 16.5195 114.937 16.4766C115.023 16.4336 115.088 16.3656 115.131 16.2725C115.174 16.1794 115.195 16.0469 115.195 15.875V10.7188ZM123.61 25.5H122.579L120.688 15.875V25.5H119.485V9H120.516L122.418 18.9688V9H123.61V25.5Z" fill="white"/>
</g>
</svg>
