<svg width="638" height="91" viewBox="0 0 638 91" fill="none" xmlns="http://www.w3.org/2000/svg">
<path d="M45.696 88.704H33.536V10.624H0V0H79.104V10.624H45.696V88.704Z" fill="white"/>
<path d="M108.333 19.84C119.256 19.84 127.362 21.9733 132.653 26.24C137.944 30.5067 140.589 37.0347 140.589 45.824V88.704H128.557V77.056C123.864 86.1013 115.245 90.624 102.701 90.624C83.501 90.624 73.901 83.7973 73.901 70.144C73.901 55.8933 84.4823 48.768 105.645 48.768C114.264 48.768 121.901 49.792 128.557 51.84V45.824C128.557 40.3627 126.936 36.3947 123.693 33.92C120.45 31.36 115.373 30.08 108.461 30.08C96.2583 30.08 89.773 33.28 89.005 39.68H77.613C78.5517 26.4533 88.7917 19.84 108.333 19.84ZM104.877 80.768C111.618 80.768 117.08 79.4453 121.261 76.8C125.528 74.0693 127.96 70.4427 128.557 65.92V61.568C122.072 59.52 114.648 58.496 106.285 58.496C92.8023 58.496 86.061 62.3787 86.061 70.144C86.061 77.2267 92.333 80.768 104.877 80.768Z" fill="white"/>
<path d="M196.099 21.76V31.872H171.779V67.84C171.779 76.2027 176.174 80.384 184.963 80.384C189.144 80.384 192.856 79.5733 196.099 77.952V87.936C192.942 89.728 188.931 90.624 184.067 90.624C167.939 90.624 159.875 83.0293 159.875 67.84V31.872H148.483V21.76H159.875V4.096H171.779V21.76H196.099Z" fill="white"/>
<path d="M235.533 19.84C246.456 19.84 254.562 21.9733 259.853 26.24C265.144 30.5067 267.789 37.0347 267.789 45.824V88.704H255.757V77.056C251.064 86.1013 242.445 90.624 229.901 90.624C210.701 90.624 201.101 83.7973 201.101 70.144C201.101 55.8933 211.682 48.768 232.845 48.768C241.464 48.768 249.101 49.792 255.757 51.84V45.824C255.757 40.3627 254.136 36.3947 250.893 33.92C247.65 31.36 242.573 30.08 235.661 30.08C223.458 30.08 216.973 33.28 216.205 39.68H204.813C205.752 26.4533 215.992 19.84 235.533 19.84ZM232.077 80.768C238.818 80.768 244.28 79.4453 248.461 76.8C252.728 74.0693 255.16 70.4427 255.757 65.92V61.568C249.272 59.52 241.848 58.496 233.485 58.496C220.002 58.496 213.261 62.3787 213.261 70.144C213.261 77.2267 219.533 80.768 232.077 80.768Z" fill="white"/>
<path d="M293.219 21.888V38.4C298.339 26.1973 307.683 20.0107 321.251 19.84V32C311.779 32.0853 304.867 34.2613 300.515 38.528C296.248 42.7093 293.816 49.7493 293.219 59.648V88.704H281.187V21.888H293.219Z" fill="white"/>
<path d="M333.251 89.856V0.255981H339.779V83.968H391.363V89.856H333.251Z" fill="white"/>
<path d="M425.689 90.368C418.948 90.368 412.974 88.9173 407.769 86.016C402.649 83.1147 398.596 79.104 395.609 73.984C392.708 68.864 391.257 63.0187 391.257 56.448C391.257 49.792 392.622 43.9467 395.353 38.912C398.169 33.792 402.009 29.7813 406.873 26.88C411.737 23.9787 417.198 22.528 423.257 22.528C429.316 22.528 434.734 23.936 439.513 26.752C444.377 29.568 448.174 33.536 450.905 38.656C453.721 43.6907 455.129 49.536 455.129 56.192C455.129 56.448 455.086 56.7467 455.001 57.088C455.001 57.344 455.001 57.6427 455.001 57.984H395.993V52.992H451.545L448.985 55.424C449.07 50.2187 447.961 45.568 445.657 41.472C443.438 37.2907 440.409 34.048 436.569 31.744C432.729 29.3547 428.292 28.16 423.257 28.16C418.308 28.16 413.87 29.3547 409.945 31.744C406.105 34.048 403.076 37.2907 400.857 41.472C398.638 45.568 397.529 50.2613 397.529 55.552V56.704C397.529 62.1653 398.724 67.0293 401.113 71.296C403.588 75.4773 406.958 78.7626 411.225 81.152C415.492 83.456 420.356 84.608 425.817 84.608C430.084 84.608 434.052 83.84 437.721 82.304C441.476 80.768 444.633 78.4213 447.193 75.264L450.905 79.488C448.004 83.072 444.334 85.8027 439.897 87.68C435.545 89.472 430.809 90.368 425.689 90.368Z" fill="white"/>
<path d="M508.765 89.856V74.624L508.509 72.32V47.232C508.509 41.0027 506.802 36.2667 503.389 33.024C500.061 29.7813 495.154 28.16 488.669 28.16C484.061 28.16 479.752 28.9707 475.741 30.592C471.816 32.128 468.445 34.1333 465.629 36.608L462.429 32C465.757 29.0133 469.768 26.7093 474.461 25.088C479.154 23.3813 484.061 22.528 489.181 22.528C497.458 22.528 503.816 24.6187 508.253 28.8C512.69 32.9813 514.909 39.2107 514.909 47.488V89.856H508.765ZM484.701 90.368C479.752 90.368 475.442 89.6 471.773 88.064C468.189 86.4427 465.416 84.1813 463.453 81.28C461.576 78.3786 460.637 75.0507 460.637 71.296C460.637 67.8827 461.405 64.8107 462.941 62.08C464.562 59.264 467.208 57.0027 470.877 55.296C474.546 53.504 479.453 52.608 485.597 52.608H510.173V57.6H485.725C478.813 57.6 473.949 58.88 471.133 61.44C468.402 64 467.037 67.2 467.037 71.04C467.037 75.3067 468.658 78.72 471.901 81.28C475.144 83.84 479.709 85.12 485.597 85.12C491.229 85.12 495.965 83.84 499.805 81.28C503.73 78.72 506.632 75.008 508.509 70.144L510.301 74.496C508.509 79.36 505.437 83.2427 501.085 86.144C496.818 88.96 491.357 90.368 484.701 90.368Z" fill="white"/>
<path d="M534.878 89.856V23.04H541.022V41.344L540.382 39.296C542.259 33.92 545.417 29.7813 549.854 26.88C554.291 23.9787 559.838 22.528 566.494 22.528V28.8C566.238 28.8 565.982 28.8 565.726 28.8C565.47 28.7147 565.214 28.672 564.958 28.672C557.534 28.672 551.731 31.0187 547.55 35.712C543.369 40.32 541.278 46.7627 541.278 55.04V89.856H534.878Z" fill="white"/>
<path d="M610.368 22.528C615.829 22.528 620.565 23.5947 624.576 25.728C628.672 27.776 631.829 30.9333 634.048 35.2C636.352 39.3813 637.504 44.5867 637.504 50.816V89.856H631.104V51.328C631.104 43.8186 629.184 38.1013 625.344 34.176C621.589 30.2507 616.299 28.288 609.472 28.288C604.267 28.288 599.744 29.3547 595.904 31.488C592.064 33.6213 589.12 36.608 587.072 40.448C585.109 44.288 584.128 48.896 584.128 54.272V89.856H577.728V23.04H583.872V41.6L582.976 39.552C585.024 34.2613 588.395 30.1227 593.088 27.136C597.781 24.064 603.541 22.528 610.368 22.528Z" fill="white"/>
</svg>
