<svg width="83" height="83" viewBox="0 0 83 83" fill="none" xmlns="http://www.w3.org/2000/svg">
<g clip-path="url(#clip0_418_973)">
<path d="M0 29.5065C0 19.173 0 14.0063 2.01275 10.0638C3.78034 6.59828 6.59828 3.78034 10.0638 2.01275C14.0063 0 19.1938 0 29.5065 0H53.4935C63.827 0 68.9938 0 72.9363 2.01275C76.4017 3.78034 79.2197 6.59828 80.9873 10.0638C83 14.0063 83 19.1938 83 29.5065V53.4935C83 63.827 83 68.9938 80.9873 72.9363C79.2197 76.4017 76.4017 79.2197 72.9363 80.9873C68.9938 83 63.8063 83 53.4935 83H29.5065C19.173 83 14.0063 83 10.0638 80.9873C6.59828 79.2197 3.78034 76.4017 2.01275 72.9363C0 68.9938 0 63.8063 0 53.4935V29.5065Z" fill="#FEF339"/>
<path d="M3.07077 74.7415C2.68418 74.1602 2.33086 73.5575 2.01252 72.9363C0.726016 70.4048 0.269516 67.396 0.103516 62.8725L22.0363 55.112L39.5493 0H53.4933C57.5603 0 60.818 0 63.5363 0.1245L58.3488 42.7865L82.9998 34.3828V47.3515L57.0623 56.44L54.4685 83H42.143L44.7368 60.2995L31.768 64.8438L25.9373 83C20.1688 82.9793 16.2678 82.8548 13.259 82.1285L17.5128 69.388L3.07077 74.7415Z" fill="black"/>
<path d="M46.0443 47.3308L36.3125 50.5885L49.9245 9.0885L46.065 47.31L46.0443 47.3308Z" fill="#FEF339"/>
</g>
<defs>
<clipPath id="clip0_418_973">
<rect width="83" height="83" fill="white"/>
</clipPath>
</defs>
</svg>
